<svg xmlns="http://www.w3.org/2000/svg" viewBox="0 0 2633.5 2639.5" id="bg-map">
  <path fill="none" stroke="#8BCED2" stroke-miterlimit="10" stroke-dasharray="5,3" d="M1912.9,1314.4 c0,317.1-257.1,574.2-574.2,574.2s-574.2-257.1-574.2-574.2s257.1-574.2,574.2-574.2S1912.9,997.3,1912.9,1314.4z"/>

  <circle fill="none" stroke="#8BCED2" stroke-width="2" stroke-miterlimit="10" stroke-dasharray="150.0176,50.0059" cx="1338.7" cy="1314.4" r="763.9"/>

  <circle fill="none" stroke="#8BCED2" stroke-width="2" stroke-linecap="round" stroke-miterlimit="10" stroke-dasharray="2.9981,4.9969" cx="1338.7" cy="1314.4" r="66.2"/>

  <path fill="none" stroke="#8BCED2" stroke-miterlimit="10" d="M1415.7,868.7l121.2-700.8 M1338.7,1314.4l-1.7-66.2l-12.8-507.8 M1238.5,873.3L1083,179.4 M1105.6,789.5l206.2,464.4 M1338.7,1314.4 M1077.7,945.1L668.2,363.7 M922.6,918.8l368.2,350l48,45.6 M203.8,594.8l753.1,477.2 M802.8,1108.1l474.2,182.5 M1338.7,1314.4 M892.8,1239.5l-120.2-21.1l-580.2-102 M175.7,1343.8 M1338.7,1314.4l-66.2,1.7l-507.8,12.8 M203.8,1570.1l693.4-157.8 M1278.3,1341.2l-464.4,206.2 M1338.7,1314.4 M969.8,1575.8 l-794.1,557.4 M943.1,1730.5l350-368.2l45.6-48 M1098.1,1697.2l-381,600.5 M1132.4,1850.4l182.5-474.2 M1338.7,1314.4 M1261.6,1760 l-121,700.8 M1338.7,1314.4l1.7,66.2l12.8,508 M1594.5,2449.3L1437,1755.8 M1571.9,1839.2l-206.2-464.4 M1338.7,1314.4 M1599.6,1683.8l409.7,581.3 M1338.7,1314.4l48,45.6l368.2,350 M1720.6,1556.6l601.5,379.5 M1874.7,1520.7l-474.2-182.5 M1338.7,1314.4 M1784.5,1390.6l700.7,121.9 M1912.7,1299.9l-507.8,12.8l-66.2,1.7 M2473.7,1058.6l-694.3,154 M1863.6,1081.3 l-464.4,206.2 M1338.7,1314.4 M2379.5,582.4l-671.3,471.1 M1338.7,1314.4l45.6-48l350-368.2 M1580.6,932.3L1960.5,331 M1545.1,778.4 l-182.5,474.2 M1338.7,1314.4"/>

  <path fill="none" stroke="#8BCED2" stroke-width="2" stroke-miterlimit="10" d="M1341.7,854.9v12.5 M1333.6,854.9l0.2,12.5 M1326.1,867.6l-0.4-12.4 M1317.6,855.4l0.7,12.4 M1310.5,868.3l-0.9-12.4 M1302.7,868.8l-1.1-12.4 M1293.6,857.1l1.3,12.4 M1285.7,858l1.5,12.4 M1279.4,871.3l-1.7-12.3 M1269.8,860.1l1.9,12.3 M1264,873.7l-2.2-12.3 M1256.3,875l-2.4-12.2 M1248.7,876.5 l-2.6-12.2 M1241,878.2l-2.8-12.1 M1233.4,880l-3-12.1 M1222.7,869.8l3.2,12 M1218.3,883.9l-3.4-12 M1207.2,874.1l3.6,11.9 M1199.5,876.5l3.8,11.8 M1191.9,879l4.1,11.8 M1188.6,893.3l-4.3-11.7 M1181.3,896l-4.5-11.6 M1174,898.8l-4.7-11.5 M1161.9,890.3 l4.9,11.5 M1159.6,904.8l-5.1-11.4 M1147.2,896.7l5.3,11.3 M1145.4,911.3l-5.5-11.2 M1132.8,903.7l5.7,11.1 M1125.6,907.3l5.8,11 M1118.6,911.1l6,10.9 M1117.8,925.8l-6.2-10.8 M1111,929.7l-6.4-10.7 M1097.8,923.2l6.6,10.6 M1097.7,937.9l-6.8-10.4 M1084.3,931.8l7,10.3 M1077.6,936.3l7.1,10.2 M1078.4,951l-7.3-10.1 M1064.6,945.7l7.5,9.9 M1058.2,950.5l7.7,9.8 M1051.9,955.5 l7.8,9.7 M1053.7,970.1l-8-9.5 M1039.5,965.7l8.2,9.4 M1033.5,971l8.3,9.3 M1027.5,976.4l8.5,9.1 M1021.7,981.8l8.7,9 M1015.9,987.4 l8.8,8.8 M1010.3,993.1l9,8.7 M1004.7,998.9l9.1,8.5 M1008.5,1013.1l-9.3-8.3 M993.9,1010.7l9.4,8.2 M998.2,1024.8l-9.5-8 M993.2,1030.8l-9.7-7.8 M988.3,1036.9l-9.8-7.7 M983.5,1043l-9.9-7.5 M968.8,1042l10.1,7.3 M964.1,1048.4l10.2,7.1 M959.5,1055 l10.3,7 M955,1061.7l10.4,6.8 M950.7,1068.4l10.6,6.6 M946.4,1075.2l10.7,6.4 M942.3,1082.1l10.8,6.2 M938.3,1089.1l10.9,6 M934.5,1096.1l11,5.8 M930.7,1103.2l11.1,5.7 M927.1,1110.3l11.2,5.5 M923.6,1117.6l11.3,5.3 M931.6,1129.9l-11.4-5.1 M917,1132.2 l11.5,4.9 M913.9,1139.5l11.5,4.7 M910.9,1147l11.6,4.5 M919.7,1158.7l-11.7-4.3 M917.1,1166.1l-11.8-4.1 M914.5,1173.5l-11.8-3.8 M900.2,1177.2l11.9,3.6 M897.9,1184.9l12,3.4 M895.7,1192.6l12,3.2 M893.7,1200.4l12.1,3 M903.9,1211l-12.1-2.8 M889.9,1216 l12.2,2.6 M888.3,1223.8l12.2,2.4 M886.8,1231.7l12.3,2.2 M897.7,1241.6l-12.3-1.9 M884.2,1247.5l12.3,1.7 M883.1,1255.5l12.4,1.5 M894.5,1264.7l-12.4-1.3 M881.3,1271.4l12.4,1.1 M880.6,1279.4l12.4,0.9 M892.5,1288.1l-12.4-0.7 M892.1,1295.8l-12.4-0.4 M891.9,1303.6l-12.5-0.2 M879.3,1311.4h12.5 M879.3,1319.5l12.5-0.2 M879.5,1327.5l12.4-0.4 M879.8,1335.5l12.4-0.7 M880.2,1343.5 l12.4-0.9 M893.2,1350.4l-12.4,1.1 M893.9,1358.2l-12.4,1.3 M882.4,1367.5l12.4-1.5 M895.7,1373.7l-12.3,1.7 M884.5,1383.4l12.3-1.9 M898,1389.1l-12.3,2.2 M899.4,1396.8l-12.2,2.4 M888.7,1407l12.2-2.6 M902.6,1412.1l-12.1,2.8 M904.3,1419.7l-12.1,3 M894.2,1430.5 l12-3.2 M896.3,1438.2l12-3.4 M898.5,1445.9l11.9-3.6 M900.9,1453.6l11.8-3.8 M915.2,1457.1l-11.8,4.1 M906,1468.8l11.7-4.3 M920.4,1471.8l-11.6,4.5 M911.7,1483.8l11.5-4.7 M926.1,1486.3l-11.5,4.9 M917.8,1498.6l11.4-5.1 M921.1,1505.9l11.3-5.3 M924.5,1513.1l11.2-5.5 M928,1520.3l11.1-5.7 M942.7,1521.6l-11,5.8 M946.4,1528.5l-10.9,6 M950.2,1535.3l-10.8,6.2 M943.4,1548.5 l10.7-6.4 M947.6,1555.4l10.6-6.6 M962.3,1555.4l-10.4,6.8 M956.2,1568.9l10.3-7 M960.7,1575.5l10.2-7.1 M965.3,1582.1l10.1-7.3 M970.1,1588.5l9.9-7.5 M974.9,1594.9l9.8-7.7 M989.5,1593.4l-9.7,7.8 M994.5,1599.4l-9.5,8 M999.5,1605.4l-9.4,8.2 M1004.6,1611.3 l-9.3,8.3 M1009.8,1617.1l-9.1,8.5 M1015.2,1622.8l-9,8.7 M1011.8,1637.2l8.8-8.8 M1017.5,1642.8l8.7-9 M1023.3,1648.4l8.5-9.1 M1029.1,1653.8l8.3-9.3 M1035.1,1659.2l8.2-9.4 M1049.2,1654.9l-8,9.5 M1055.2,1659.9l-7.8,9.7 M1061.2,1664.8l-7.7,9.8 M1059.9,1679.5l7.5-9.9 M1073.6,1674.3l-7.3,10.1 M1080,1678.8l-7.1,10.2 M1079.4,1693.6l7-10.3 M1092.8,1687.7l-6.8,10.4 M1099.4,1691.9l-6.6,10.6 M1106,1696l-6.4,10.7 M1106.5,1710.8l6.2-10.8 M1119.5,1703.9l-6,10.9 M1120.5,1718.7l5.8-11 M1133.2,1711.3l-5.7,11.1 M1140.2,1714.8l-5.5,11.2 M1147.2,1718.2l-5.3,11.3 M1154.3,1721.5l-5.1,11.4 M1156.5,1736.1l4.9-11.5 M1168.6,1727.7l-4.7,11.5 M1175.8,1730.6l-4.5,11.6 M1183.1,1733.4l-4.3,11.7 M1190.5,1736.1l-4.1,11.8 M1194,1750.4l3.8-11.8 M1201.6,1752.9l3.6-11.9 M1209.3,1755.2l3.4-12 M1220.2,1745.4l-3.2,12 M1224.8,1759.5l3-12.1 M1232.5,1761.4l2.8-12.1 M1240.4,1763.2l2.6-12.2 M1250.6,1752.6l-2.4,12.2 M1256.1,1766.3l2.2-12.3 M1265.9,1755.4l-1.9,12.3 M1271.9,1768.9l1.7-12.3 M1281.4,1757.7l-1.5,12.4 M1287.8,1771l1.3-12.4 M1295.8,1771.8l1.1-12.4 M1303.8,1772.5l0.9-12.4 M1311.8,1773l0.7-12.4 M1319.8,1773.4l0.4-12.4 M1327.8,1773.7l0.2-12.5 M1335.8,1761.4v12.5 M1343.8,1773.8l-0.2-12.5 M1351.4,1761.2l0.4,12.4 M1359.9,1773.3l-0.7-12.4 M1367,1760.5l0.9,12.4 M1374.8,1759.9l1.1,12.4 M1383.9,1771.6l-1.3-12.4 M1391.8,1770.7l-1.5-12.4 M1399.8,1769.7l-1.7-12.3 M1407.7,1768.6l-1.9-12.3 M1415.6,1767.3l-2.2-12.3 M1421.2,1753.7l2.4,12.2 M1428.8,1752.2l2.6,12.2 M1436.4,1750.6l2.8,12.1 M1447.1,1760.9l-3-12.1 M1454.8,1758.9l-3.2-12 M1462.6,1756.8l-3.4-12 M1466.6,1742.7l3.6,11.9 M1477.9,1752.2l-3.8-11.8 M1481.5,1738l4.1,11.8 M1493.1,1747.1l-4.3-11.7 M1500.7,1744.3l-4.5-11.6 M1508.1,1741.5l-4.7-11.5 M1515.6,1738.4l-4.9-11.5 M1522.9,1735.3l-5.1-11.4 M1525,1720.7l5.3,11.3 M1532.1,1717.4l5.5,11.2 M1544.7,1725.1l-5.7-11.1 M1551.9,1721.4l-5.8-11 M1552.9,1706.7l6,10.9 M1565.9,1713.7l-6.2-10.8 M1566.5,1699l6.4,10.7 M1573.1,1695l6.6,10.6 M1579.7,1690.8l6.8,10.4 M1593.2,1696.9l-7-10.3 M1592.7,1682.2l7.1,10.2 M1606.4,1687.8l-7.3-10.1 M1612.9,1683.1l-7.5-9.9 M1619.3,1678.2l-7.7-9.8 M1617.8,1663.6l7.8,9.7 M1623.8,1658.7l8,9.5 M1629.8,1653.6l8.2,9.4 M1644,1657.8l-8.3-9.3 M1641.5,1643.3l8.5,9.1 M1655.8,1646.9l-8.7-9 M1652.7,1632.5l8.8,8.8 M1667.2,1635.6l-9-8.7 M1672.8,1629.8l-9.1-8.5 M1669,1615.6 l9.3,8.3 M1674.2,1609.8l9.4,8.2 M1679.3,1603.9l9.5,8 M1684.3,1597.9l9.7,7.8 M1689.2,1591.9l9.8,7.7 M1703.9,1593.2l-9.9-7.5 M1708.7,1586.8l-10.1-7.3 M1713.4,1580.3l-10.2-7.1 M1718,1573.7l-10.3-7 M1722.5,1567.1l-10.4-6.8 M1726.8,1560.3l-10.6-6.6 M1731.1,1553.5l-10.7-6.4 M1735.2,1546.6l-10.8-6.2 M1739.2,1539.7l-10.9-6 M1732,1526.8l11,5.8 M1735.7,1519.9l11.1,5.7 M1750.4,1518.4l-11.2-5.5 M1753.9,1511.2l-11.3-5.3 M1757.3,1503.9l-11.4-5.1 M1749.1,1491.7l11.5,4.9 M1763.6,1489.2l-11.5-4.7 M1755,1477.3l11.6,4.5 M1757.8,1470l11.7,4.3 M1772.2,1466.7l-11.8-4.1 M1763,1455.3l11.8,3.8 M1777.3,1451.5l-11.9-3.6 M1779.6,1443.8l-12-3.4 M1781.8,1436.1l-12-3.2 M1771.7,1425.3l12.1,3 M1785.8,1420.6l-12.1-2.8 M1787.5,1412.8l-12.2-2.6 M1777,1402.5l12.2,2.4 M1778.4,1394.9l12.3,2.2 M1779.8,1387.2l12.3,1.9 M1793.3,1381.2l-12.3-1.7 M1794.4,1373.3l-12.4-1.5 M1783,1364l12.4,1.3 M1796.2,1357.3l-12.4-1.1 M1796.9,1349.3l-12.4-0.9 M1785,1340.7l12.4,0.7 M1797.8,1333.3l-12.4-0.4 M1785.6,1325.1l12.5,0.2 M1798.2,1317.3h-12.5 M1798.2,1309.3l-12.5,0.2 M1798,1301.3l-12.4,0.4 M1797.7,1293.2l-12.4,0.7 M1797.3,1285.2l-12.4,0.9 M1784.3,1278.3l12.4-1.1 M1783.6,1270.6l12.4-1.3 M1795.1,1261.3l-12.4,1.5 M1794.1,1253.3l-12.3,1.7 M1780.7,1247.3l12.3-1.9 M1791.7,1237.5l-12.3,2.2 M1778.1,1231.9l12.2-2.4 M1788.8,1221.7l-12.2,2.6 M1774.9,1216.7l12.1-2.8 M1773.2,1209.1l12.1-3 M1783.3,1198.3l-12,3.2 M1769.2,1194l12-3.4 M1779,1182.8l-11.9,3.6 M1776.6,1175.2l-11.8,3.8 M1762.3,1171.6l11.8-4.1 M1771.5,1160l-11.7,4.3 M1757.1,1156.9l11.6-4.5 M1765.8,1145l-11.5,4.7 M1751.3,1142.4l11.5-4.9 M1759.7,1130.2l-11.4,5.1 M1756.4,1122.8l-11.3,5.3 M1753,1115.6l-11.2,5.5 M1749.4,1108.4l-11.1,5.7 M1734.8,1107.1l11-5.8 M1731.1,1100.2l10.9-6 M1727.3,1093.4l10.8-6.2 M1723.4,1086.7l10.7-6.4 M1729.9,1073.4l-10.6,6.6 M1725.7,1066.6l-10.4,6.8 M1710.9,1066.8l10.3-7 M1716.8,1053.2l-10.2,7.1 M1712.2,1046.7l-10.1,7.3 M1697.5,1047.7l9.9-7.5 M1702.6,1033.8l-9.8,7.7 M1688,1035.3l9.7-7.8 M1683,1029.3l9.5-8 M1678,1023.3l9.4-8.2 M1672.9,1017.4l9.3-8.3 M1676.8,1003.2l-9.1,8.5 M1662.3,1006l9-8.7 M1665.7,991.6l-8.8,8.8 M1660,985.9l-8.7,9 M1654.2,980.3l-8.5,9.1 M1648.3,974.9l-8.3,9.3 M1642.4,969.5l-8.2,9.4 M1628.3,973.8 l8-9.5 M1622.3,968.8l7.8-9.7 M1616.2,963.9l7.7-9.8 M1617.6,949.2l-7.5,9.9 M1603.8,954.5l7.3-10.1 M1597.5,949.9l7.1-10.2 M1598.1,935.1l-7,10.3 M1584.6,941.1l6.8-10.4 M1578.1,936.9l6.6-10.6 M1571.5,932.7l6.4-10.7 M1571,917.9l-6.2,10.8 M1558,924.8 l6-10.9 M1557,910.1l-5.8,11 M1544.3,917.4l5.7-11.1 M1537.3,913.9l5.5-11.2 M1530.3,910.5l5.3-11.3 M1523.2,907.2l5.1-11.4 M1521,892.6l-4.9,11.5 M1508.9,901l4.7-11.5 M1501.7,898.1l4.5-11.6 M1494.4,895.3l4.3-11.7 M1487,892.7l4.1-11.8 M1483.5,878.3 l-3.8,11.8 M1475.9,875.9l-3.6,11.9 M1468.2,873.5l-3.4,12 M1460.5,871.3l-3.2,12 M1449.7,881.4l3-12.1 M1444.9,867.4l-2.8,12.1 M1437.1,865.6l-2.6,12.2 M1426.9,876.2l2.4-12.2 M1421.4,862.4l-2.2,12.3 M1411.6,873.3l1.9-12.3 M1405.6,859.8l-1.7,12.3 M1396.1,871.1l1.5-12.4 M1389.7,857.7l-1.3,12.4 M1380.6,869.3l1.1-12.4 M1373.7,856.2l-0.9,12.4 M1365.7,855.7l-0.7,12.4 M1357.7,855.3l-0.4,12.4 M1349.5,867.5l0.2-12.5"/>
</svg>
