<svg xmlns="http://www.w3.org/2000/svg" viewBox="0 0 2633.5 2639.5"><path fill="none" stroke="#8BCED2" stroke-miterlimit="10" stroke-dasharray="5,3" d="M1912.9 1314.4c0 317.1-257.1 574.2-574.2 574.2s-574.2-257.1-574.2-574.2 257.1-574.2 574.2-574.2 574.2 257.1 574.2 574.2z"/><circle fill="none" stroke="#8BCED2" stroke-width="2" stroke-miterlimit="10" stroke-dasharray="150.0176,50.0059" cx="1338.7" cy="1314.4" r="763.9"/><circle fill="none" stroke="#8BCED2" stroke-width="2" stroke-linecap="round" stroke-miterlimit="10" stroke-dasharray="2.9981,4.9969" cx="1338.7" cy="1314.4" r="66.2"/><path fill="none" stroke="#8BCED2" stroke-miterlimit="10" d="M1415.7 868.7l121.2-700.8m-198.2 1146.5l-1.7-66.2-12.8-507.8m-85.7 132.9L1083 179.4m22.6 610.1l206.2 464.4m-234.1-308.8L668.2 363.7m254.4 555.1l368.2 350 48 45.6m-1135-719.6L956.9 1072m-154.1 36.1l474.2 182.5M892.8 1239.5l-120.2-21.1-580.2-102m1146.3 198l-66.2 1.7-507.8 12.8m-560.9 241.2l693.4-157.8m381.1-71.1l-464.4 206.2M969.8 1575.8l-794.1 557.4m767.4-402.7l350-368.2 45.6-48m-240.6 382.9l-381 600.5m415.3-447.3l182.5-474.2m-53.3 383.8l-121 700.8m198.1-1146.4l1.7 66.2 12.8 508m241.3 560.7L1437 1755.8m134.9 83.4l-206.2-464.4M1599.6 1683.8l409.7 581.3m-670.6-950.7l48 45.6 368.2 350m-34.3-153.4l601.5 379.5m-447.4-415.4l-474.2-182.5M1784.5 1390.6l700.7 121.9m-572.5-212.6l-507.8 12.8-66.2 1.7m1135-255.8l-694.3 154m84.2-131.3l-464.4 206.2m980.3-705.1l-671.3 471.1m-369.5 260.9l45.6-48 350-368.2m-153.7 34.1L1960.5 331m-415.4 447.4l-182.5 474.2m-23.9 61.8"/><path fill="none" stroke="#8BCED2" stroke-width="2" stroke-miterlimit="10" d="M1341.7 854.9v12.5m-8.1-12.5l.2 12.5m-7.7.2l-.4-12.4m-8.1.2l.7 12.4m-7.8.5l-.9-12.4m-6.9 12.9l-1.1-12.4m-8 .7l1.3 12.4m-9.2-11.5l1.5 12.4m-7.8.9l-1.7-12.3m-7.9 1.1l1.9 12.3m-7.7 1.3l-2.2-12.3m-5.5 13.6l-2.4-12.2m-5.2 13.7l-2.6-12.2m-5.1 13.9l-2.8-12.1m-4.8 13.9l-3-12.1m-7.7 1.9l3.2 12m-7.6 2.1l-3.4-12m-7.7 2.2l3.6 11.9m-11.3-9.5l3.8 11.8m-11.4-9.3l4.1 11.8m-7.4 2.5l-4.3-11.7m-3 14.4l-4.5-11.6m-2.8 14.4l-4.7-11.5m-7.4 3l4.9 11.5m-7.2 3l-5.1-11.4m-7.3 3.3l5.3 11.3m-7.1 3.3l-5.5-11.2m-7.1 3.6l5.7 11.1m-12.9-7.5l5.8 11m-12.8-7.2l6 10.9m-6.8 3.8l-6.2-10.8m-.6 14.7l-6.4-10.7m-6.8 4.2l6.6 10.6m-6.7 4.1l-6.8-10.4m-6.6 4.3l7 10.3m-13.7-5.8l7.1 10.2m-6.3 4.5l-7.3-10.1m-6.5 4.8l7.5 9.9m-13.9-5.1l7.7 9.8m-14-4.8l7.8 9.7m-6 4.9l-8-9.5m-6.2 5.1l8.2 9.4m-14.2-4.1l8.3 9.3m-14.3-3.9l8.5 9.1m-14.3-3.7l8.7 9m-14.5-3.4l8.8 8.8m-14.4-3.1l9 8.7m-14.6-2.9l9.1 8.5m-5.3 5.7l-9.3-8.3m-5.3 5.9l9.4 8.2m-5.1 5.9l-9.5-8m4.5 14l-9.7-7.8m4.8 13.9l-9.8-7.7m5 13.8l-9.9-7.5m-4.8 6.5l10.1 7.3m-14.8-.9l10.2 7.1m-14.8-.5l10.3 7m-14.8-.3l10.4 6.8m-14.7-.1l10.6 6.6m-14.9.2l10.7 6.4m-14.8.5l10.8 6.2m-14.8.8l10.9 6m-14.7 1l11 5.8m-14.8 1.3l11.1 5.7m-14.7 1.4l11.2 5.5m-14.7 1.8l11.3 5.3m-3.3 7l-11.4-5.1m-3.2 7.4l11.5 4.9m-14.6 2.4l11.5 4.7m-14.5 2.8l11.6 4.5m-2.8 7.2l-11.7-4.3m9.1 11.7l-11.8-4.1m9.2 11.5l-11.8-3.8m-2.5 7.5l11.9 3.6m-14.2 4.1l12 3.4m-14.2 4.3l12 3.2m-14 4.6l12.1 3m-1.9 7.6l-12.1-2.8m-1.9 7.8l12.2 2.6m-13.8 5.2l12.2 2.4m-13.7 5.5l12.3 2.2m-1.4 7.7l-12.3-1.9m-1.2 7.8l12.3 1.7m-13.4 6.3l12.4 1.5m-1 7.7l-12.4-1.3m-.8 8l12.4 1.1m-13.1 6.9l12.4.9m-.5 7.8l-12.4-.7m12 8.4l-12.4-.4m12.2 8.2l-12.5-.2m-.1 8h12.5m-12.5 8.1l12.5-.2m-12.3 8.2l12.4-.4m-12.1 8.4l12.4-.7m-12 8.7l12.4-.9m.6 7.8l-12.4 1.1m13.1 6.7l-12.4 1.3m.9 8l12.4-1.5m.9 7.7l-12.3 1.7m1.1 8l12.3-1.9m1.2 7.6l-12.3 2.2m13.7 5.5l-12.2 2.4m1.5 7.8l12.2-2.6m1.7 7.7l-12.1 2.8m13.8 4.8l-12.1 3m2 7.8l12-3.2m-9.9 10.9l12-3.4m-9.8 11.1l11.9-3.6m-9.5 11.3l11.8-3.8m2.5 7.3l-11.8 4.1m2.6 7.6l11.7-4.3m2.7 7.3l-11.6 4.5m2.9 7.5l11.5-4.7m2.9 7.2l-11.5 4.9m3.2 7.4l11.4-5.1m-8.1 12.4l11.3-5.3m-7.9 12.5l11.2-5.5m-7.7 12.7l11.1-5.7m3.6 7l-11 5.8m14.7 1.1l-10.9 6m14.7.8l-10.8 6.2m4 7l10.7-6.4m-6.5 13.3l10.6-6.6m4.1 6.6l-10.4 6.8m4.3 6.7l10.3-7m-5.8 13.6l10.2-7.1m-5.6 13.7l10.1-7.3m-5.3 13.7l9.9-7.5m-5.1 13.9l9.8-7.7m4.8 6.2l-9.7 7.8m14.7-1.8l-9.5 8m14.5-2l-9.4 8.2m14.5-2.3l-9.3 8.3m14.5-2.5l-9.1 8.5m14.5-2.8l-9 8.7m5.6 5.7l8.8-8.8m-3.1 14.4l8.7-9m-2.9 14.6l8.5-9.1m-2.7 14.5l8.3-9.3m-2.3 14.7l8.2-9.4m5.9 5.1l-8 9.5m14-4.5l-7.8 9.7m13.8-4.8l-7.7 9.8m6.4 4.9l7.5-9.9m6.2 4.7l-7.3 10.1m13.7-5.6l-7.1 10.2m6.5 4.6l7-10.3m6.4 4.4l-6.8 10.4m13.4-6.2l-6.6 10.6m13.2-6.5l-6.4 10.7m6.9 4.1l6.2-10.8m6.8 3.9l-6 10.9m7 3.9l5.8-11m6.9 3.6l-5.7 11.1m12.7-7.6l-5.5 11.2m12.5-7.8l-5.3 11.3m12.4-8l-5.1 11.4m7.3 3.2l4.9-11.5m7.2 3.1l-4.7 11.5m11.9-8.6l-4.5 11.6m11.8-8.8l-4.3 11.7m11.7-9l-4.1 11.8m7.6 2.5l3.8-11.8m3.8 14.3l3.6-11.9m4.1 14.2l3.4-12m7.5 2.2l-3.2 12m7.8 2.1l3-12.1m4.7 14l2.8-12.1m5.1 13.9l2.6-12.2m7.6 1.6l-2.4 12.2m7.9 1.5l2.2-12.3m7.6 1.4l-1.9 12.3m7.9 1.2l1.7-12.3m7.8 1.1l-1.5 12.4m7.9.9l1.3-12.4m6.7 13.2l1.1-12.4m6.9 13.1l.9-12.4m7.1 12.9l.7-12.4m7.3 12.8l.4-12.4m7.6 12.7l.2-12.5m7.8.2v12.5m8-.1l-.2-12.5m7.8-.1l.4 12.4m8.1-.3l-.7-12.4m7.8-.4l.9 12.4m6.9-13l1.1 12.4m8-.7l-1.3-12.4m9.2 11.5l-1.5-12.4m9.5 11.4l-1.7-12.3m9.6 11.2l-1.9-12.3m9.8 11l-2.2-12.3m7.8-1.3l2.4 12.2m5.2-13.7l2.6 12.2m5-13.8l2.8 12.1m7.9-1.8l-3-12.1m10.7 10.1l-3.2-12m11 9.9l-3.4-12m7.4-2.1l3.6 11.9m7.7-2.4l-3.8-11.8m7.4-2.4l4.1 11.8m7.5-2.7l-4.3-11.7m11.9 8.9l-4.5-11.6m11.9 8.8l-4.7-11.5m12.2 8.4l-4.9-11.5m12.2 8.4l-5.1-11.4m7.2-3.2l5.3 11.3m1.8-14.6l5.5 11.2m7.1-3.5l-5.7-11.1m12.9 7.4l-5.8-11m6.8-3.7l6 10.9m7-3.9l-6.2-10.8m6.8-3.9l6.4 10.7m.2-14.7l6.6 10.6m0-14.8l6.8 10.4m6.7-4.3l-7-10.3m6.5-4.4l7.1 10.2m6.6-4.6l-7.3-10.1m13.8 5.4l-7.5-9.9m13.9 5l-7.7-9.8m6.2-4.8l7.8 9.7m-1.8-14.6l8 9.5m-2-14.6l8.2 9.4m6-5.2l-8.3-9.3m5.8-5.2l8.5 9.1m5.8-5.5l-8.7-9m5.6-5.4l8.8 8.8m5.7-5.7l-9-8.7m14.6 2.9l-9.1-8.5m5.3-5.7l9.3 8.3m-4.1-14.1l9.4 8.2m-4.3-14.1l9.5 8m-4.5-14l9.7 7.8m-4.8-13.8l9.8 7.7m4.9-6.4l-9.9-7.5m14.7 1.1l-10.1-7.3m14.8.8l-10.2-7.1m14.8.5l-10.3-7m14.8.4l-10.4-6.8m14.7 0l-10.6-6.6m14.9-.2l-10.7-6.4m14.8-.5l-10.8-6.2m14.8-.7l-10.9-6m3.7-6.9l11 5.8m-7.3-12.7l11.1 5.7m3.6-7.2l-11.2-5.5m14.7-1.7l-11.3-5.3m14.7-2l-11.4-5.1m3.2-7.1l11.5 4.9m3-7.4l-11.5-4.7m2.9-7.2l11.6 4.5m-8.8-11.8l11.7 4.3m2.7-7.6l-11.8-4.1m2.6-7.3l11.8 3.8m2.5-7.6l-11.9-3.6m14.2-4.1l-12-3.4m14.2-4.3l-12-3.2m1.9-7.6l12.1 3m2-7.7l-12.1-2.8m13.8-5l-12.2-2.6m1.7-7.7l12.2 2.4m-10.8-10l12.3 2.2m-10.9-9.9l12.3 1.9m1.2-7.9l-12.3-1.7m13.4-6.2l-12.4-1.5m1-7.8l12.4 1.3m.8-8l-12.4-1.1m13.1-6.9l-12.4-.9m.5-7.7l12.4.7m.4-8.1l-12.4-.4m.2-7.8l12.5.2m.1-8h-12.5m12.5-8l-12.5.2m12.3-8.2l-12.4.4m12.1-8.5l-12.4.7m12-8.7l-12.4.9m-.6-7.8l12.4-1.1m-13.1-6.6l12.4-1.3m-.9-8l-12.4 1.5m11.4-9.5l-12.3 1.7m-1.1-7.7l12.3-1.9m-1.3-7.9l-12.3 2.2m-1.3-7.8l12.2-2.4m-1.5-7.8l-12.2 2.6m-1.7-7.6l12.1-2.8m-13.8-4.8l12.1-3m-2-7.8l-12 3.2m-2.1-7.5l12-3.4m-2.2-7.8l-11.9 3.6m9.5-11.2l-11.8 3.8m-2.5-7.4l11.8-4.1m-2.6-7.5l-11.7 4.3m-2.7-7.4l11.6-4.5m-2.9-7.4l-11.5 4.7m-3-7.3l11.5-4.9m-3.1-7.3l-11.4 5.1m8.1-12.5l-11.3 5.3m7.9-12.5l-11.2 5.5m7.6-12.7l-11.1 5.7m-3.5-7l11-5.8m-14.7-1.1l10.9-6m-14.7-.8l10.8-6.2m-14.7-.5l10.7-6.4m-4.2-6.9l-10.6 6.6m6.4-13.4l-10.4 6.8m-4.4-6.6l10.3-7m-4.4-6.6l-10.2 7.1m5.6-13.6l-10.1 7.3m-4.6-6.3l9.9-7.5m-4.8-6.4l-9.8 7.7m-4.8-6.2l9.7-7.8m-14.7 1.8l9.5-8m-14.5 2l9.4-8.2m-14.5 2.3l9.3-8.3m-5.4-5.9l-9.1 8.5m-5.4-5.7l9-8.7m-5.6-5.7l-8.8 8.8m3.1-14.5l-8.7 9m2.9-14.6l-8.5 9.1m2.6-14.5l-8.3 9.3m2.4-14.7l-8.2 9.4m-5.9-5.1l8-9.5m-14 4.5l7.8-9.7m-13.9 4.8l7.7-9.8m-6.3-4.9l-7.5 9.9m-6.3-4.6l7.3-10.1m-13.6 5.5l7.1-10.2m-6.5-4.6l-7 10.3m-6.5-4.3l6.8-10.4m-13.3 6.2l6.6-10.6m-13.2 6.4l6.4-10.7m-6.9-4.1l-6.2 10.8m-6.8-3.9l6-10.9m-7-3.8l-5.8 11m-6.9-3.7l5.7-11.1m-12.7 7.6l5.5-11.2m-12.5 7.8l5.3-11.3m-12.4 8l5.1-11.4m-7.3-3.2l-4.9 11.5m-7.2-3.1l4.7-11.5m-11.9 8.6l4.5-11.6m-11.8 8.8l4.3-11.7m-11.7 9.1l4.1-11.8m-7.6-2.6l-3.8 11.8m-3.8-14.2l-3.6 11.9m-4.1-14.3l-3.4 12m-4.3-14.2l-3.2 12m-7.6-1.9l3-12.1m-7.8-1.9l-2.8 12.1m-5-13.9l-2.6 12.2m-7.6-1.6l2.4-12.2m-7.9-1.6l-2.2 12.3m-7.6-1.4l1.9-12.3m-7.9-1.2l-1.7 12.3m-7.8-1l1.5-12.4m-7.9-1l-1.3 12.4m-7.8-.8l1.1-12.4m-8-.7l-.9 12.4m-7.1-12.9l-.7 12.4m-7.3-12.8l-.4 12.4m-7.8-.2l.2-12.5"/></svg>